# xmcd
#
# Track frame offsets:
#	150
#	14745
#	33022
#
# Disc length: 608 seconds
#
# Revision: 0
# Processed by: cddbd v1.5.2PL0 Copyright (c) Steve Scherf et al.
# Submitted via: audiograbber 1.83.01
#
DISCID=1a025e03
DTITLE=Cheryl K. Warner - Radio Singles 598
DYEAR=1998
DGENRE=Country
TTITLE0=Your Hearts In The Right Place
TTITLE1=Where Do I Go From You
TTITLE2=Let´s Go Back
EXTD=
EXTT0=
EXTT1=
EXTT2=
PLAYORDER=
